<svg width="128" height="128" fill="none" viewBox="0 0 128 128" xmlns="http://www.w3.org/2000/svg"><path d="M34.133 51.2h8.533v-8.533h-8.533zm51.2 0h8.533v-8.533h-8.533zm.853 23.04c-11.093 14.791-33.28 14.791-44.373 0l-6.826 5.12c14.507 19.343 43.52 19.343 58.027 0zM8.533 42.667V21.334H0v21.333zm12.8-34.133h21.333V.001H21.333zm-12.8 12.8c0-7.07 5.731-12.8 12.8-12.8V.001C9.551 0 0 9.552 0 21.334zM0 85.334v21.333h8.533V85.334zm21.333 42.667h21.333v-8.533H21.333zM0 106.668c0 11.782 9.551 21.333 21.333 21.333v-8.533c-7.07 0-12.8-5.731-12.8-12.8zM85.333 8.535h21.333V.002H85.333zm34.133 12.8v21.333h8.533V21.335zm-12.8-12.8c7.069 0 12.8 5.73 12.8 12.8h8.533C128 9.553 118.448.002 106.666.002zm-21.333 119.47h21.333v-8.533H85.333zM128 106.672V85.339h-8.533v21.333zm-21.333 21.333c11.782 0 21.333-9.551 21.333-21.333h-8.533c0 7.069-5.731 12.8-12.8 12.8z" fill="#fff"/></svg>